{
  "accessors": [
    {
      "bufferView": 2,
      "componentType": 5126,
      "count": 65532,
      "max": [
        0.76319098472595215,
        7.1076631546020508,
        0.50111502408981323
      ],
      "min": [
        -0.44354099035263062,
        5.7130389213562012,
        -0.6787559986114502
      ],
      "type": "VEC3"
    },
    {
      "bufferView": 2,
      "byteOffset": 786384,
      "componentType": 5126,
      "count": 65532,
      "max": [
        0.99999016523361206,
        0.99997895956039429,
        0.90523302555084229
      ],
      "min": [
        -0.99999105930328369,
        -0.99997639656066895,
        -0.99983298778533936
      ],
      "type": "VEC3"
    },
    {
      "bufferView": 1,
      "componentType": 5126,
      "count": 65532,
      "max": [
        0.96568202972412109,
        0.97049498558044434
      ],
      "min": [
        0.0055329999886453152,
        0.0012469999492168427
      ],
      "type": "VEC2"
    },
    {
      "bufferView": 0,
      "componentType": 5125,
      "count": 359502,
      "max": [
        65531
      ],
      "min": [
        0
      ],
      "type": "SCALAR"
    },
    {
      "bufferView": 2,
      "byteOffset": 1572768,
      "componentType": 5126,
      "count": 65532,
      "max": [
        0.76270699501037598,
        7.0910477638244629,
        0.63081997632980347
      ],
      "min": [
        -0.43439498543739319,
        5.7782402038574219,
        -0.67937600612640381
      ],
      "type": "VEC3"
    },
    {
      "bufferView": 2,
      "byteOffset": 2359152,
      "componentType": 5126,
      "count": 65532,
      "max": [
        0.99999016523361206,
        0.99971377849578857,
        0.99944204092025757
      ],
      "min": [
        -0.99999850988388062,
        -0.99865269660949707,
        -0.9999963641166687
      ],
      "type": "VEC3"
    },
    {
      "bufferView": 1,
      "byteOffset": 524256,
      "componentType": 5126,
      "count": 65532,
      "max": [
        0.9629179835319519,
        0.99996298551559448
      ],
      "min": [
        0.00011800000356743112,
        0.0014969999901950359
      ],
      "type": "VEC2"
    },
    {
      "bufferView": 0,
      "byteOffset": 1438008,
      "componentType": 5125,
      "count": 337311,
      "max": [
        65531
      ],
      "min": [
        0
      ],
      "type": "SCALAR"
    },
    {
      "bufferView": 2,
      "byteOffset": 3145536,
      "componentType": 5126,
      "count": 65533,
      "max": [
        0.75339698791503906,
        7.0318140983581543,
        0.69451600313186646
      ],
      "min": [
        -0.44283300638198853,
        5.7135567665100098,
        -0.67937600612640381
      ],
      "type": "VEC3"
    },
    {
      "bufferView": 2,
      "byteOffset": 3931932,
      "componentType": 5126,
      "count": 65533,
      "max": [
        0.99998044967651367,
        0.99751961231231689,
        0.99998581409454346
      ],
      "min": [
        -0.99996030330657959,
        -0.99989914894104004,
        -0.99991577863693237
      ],
      "type": "VEC3"
    },
    {
      "bufferView": 1,
      "byteOffset": 1048512,
      "componentType": 5126,
      "count": 65533,
      "max": [
        0.97093099355697632,
        0.90429997444152832
      ],
      "min": [
        0.0055329999886453152,
        0.0058829998597502708
      ],
      "type": "VEC2"
    },
    {
      "bufferView": 0,
      "byteOffset": 2787252,
      "componentType": 5125,
      "count": 326178,
      "max": [
        65532
      ],
      "min": [
        0
      ],
      "type": "SCALAR"
    },
    {
      "bufferView": 2,
      "byteOffset": 4718328,
      "componentType": 5126,
      "count": 32146,
      "max": [
        0.75773298740386963,
        7.1076059341430664,
        0.69415199756622314
      ],
      "min": [
        -0.41666099429130554,
        5.7135791778564453,
        -0.10231100022792816
      ],
      "type": "VEC3"
    },
    {
      "bufferView": 2,
      "byteOffset": 5104080,
      "componentType": 5126,
      "count": 32146,
      "max": [
        0.99997586011886597,
        0.99980795383453369,
        0.99995845556259155
      ],
      "min": [
        -0.99926382303237915,
        -0.99996542930603027,
        -0.99796122312545776
      ],
      "type": "VEC3"
    },
    {
      "bufferView": 1,
      "byteOffset": 1572776,
      "componentType": 5126,
      "count": 32146,
      "max": [
        0.95870798826217651,
        0.97895997762680054
      ],
      "min": [
        0.0040469998493790627,
        4.7000001359265298e-05
      ],
      "type": "VEC2"
    },
    {
      "bufferView": 0,
      "byteOffset": 4091964,
      "componentType": 5125,
      "count": 120435,
      "max": [
        32145
      ],
      "min": [
        0
      ],
      "type": "SCALAR"
    }
  ],
  "asset": {
    "extras": {
      "author": "mjkzz (https://sketchfab.com/mjkzz)",
      "license": "CC-BY-4.0 (http://creativecommons.org/licenses/by/4.0/)",
      "source": "https://sketchfab.com/3d-models/green-apple-2-d115e527ee3a412892fd34cccd5af7f2",
      "title": "Green Apple #2"
    },
    "generator": "Sketchfab-8.83.0",
    "version": "2.0"
  },
  "bufferViews": [
    {
      "buffer": 0,
      "byteLength": 4573704,
      "byteOffset": 0,
      "name": "floatBufferViews",
      "target": 34963
    },
    {
      "buffer": 0,
      "byteLength": 1829944,
      "byteOffset": 4573704,
      "byteStride": 8,
      "name": "floatBufferViews",
      "target": 34962
    },
    {
      "buffer": 0,
      "byteLength": 5489832,
      "byteOffset": 6403648,
      "byteStride": 12,
      "name": "floatBufferViews",
      "target": 34962
    }
  ],
  "buffers": [
    {
      "byteLength": 11893480,
      "uri": "scene.bin"
    }
  ],
  "extensionsUsed": [
    "KHR_materials_unlit"
  ],
  "images": [
    {
      "uri": "textures/material_baseColor.jpeg"
    }
  ],
  "materials": [
    {
      "doubleSided": true,
      "emissiveFactor": [
        0,
        0,
        0
      ],
      "extensions": {
        "KHR_materials_unlit": {}
      },
      "name": "material",
      "pbrMetallicRoughness": {
        "baseColorFactor": [
          1,
          1,
          1,
          1
        ],
        "baseColorTexture": {
          "index": 0,
          "texCoord": 0
        },
        "metallicFactor": 0,
        "roughnessFactor": 1
      }
    }
  ],
  "meshes": [
    {
      "primitives": [
        {
          "attributes": {
            "NORMAL": 1,
            "POSITION": 0,
            "TEXCOORD_0": 2
          },
          "indices": 3,
          "material": 0,
          "mode": 4
        }
      ]
    },
    {
      "primitives": [
        {
          "attributes": {
            "NORMAL": 5,
            "POSITION": 4,
            "TEXCOORD_0": 6
          },
          "indices": 7,
          "material": 0,
          "mode": 4
        }
      ]
    },
    {
      "primitives": [
        {
          "attributes": {
            "NORMAL": 9,
            "POSITION": 8,
            "TEXCOORD_0": 10
          },
          "indices": 11,
          "material": 0,
          "mode": 4
        }
      ]
    },
    {
      "primitives": [
        {
          "attributes": {
            "NORMAL": 13,
            "POSITION": 12,
            "TEXCOORD_0": 14
          },
          "indices": 15,
          "material": 0,
          "mode": 4
        }
      ]
    }
  ],
  "nodes": [
    {
      "children": [
        1
      ],
      "name": "RootNode (gltf orientation matrix)",
      "rotation": [
        -0.70710678118654746,
        -0,
        -0,
        0.70710678118654757
      ]
    },
    {
      "children": [
        2
      ],
      "matrix": [
        0.094097718596458435,
        0.095419049263000488,
        -0.99097973108291626,
        0,
        0.0042982343584299088,
        0.99534809589385986,
        0.096247799694538116,
        0,
        0.99555367231369019,
        -0.013316161930561066,
        0.0932498499751091,
        0,
        0.10969745367765427,
        0.014670561999082565,
        -0.45173487067222595,
        1
      ],
      "name": "RootNode (model correction matrix)"
    },
    {
      "children": [
        3,
        4,
        5,
        6
      ],
      "name": "gpg.obj.cleaner.materialmerger.gles"
    },
    {
      "mesh": 0,
      "name": ""
    },
    {
      "mesh": 1,
      "name": ""
    },
    {
      "mesh": 2,
      "name": ""
    },
    {
      "mesh": 3,
      "name": ""
    }
  ],
  "samplers": [
    {
      "magFilter": 9729,
      "minFilter": 9987,
      "wrapS": 10497,
      "wrapT": 10497
    }
  ],
  "scene": 0,
  "scenes": [
    {
      "name": "OSG_Scene",
      "nodes": [
        0
      ]
    }
  ],
  "textures": [
    {
      "sampler": 0,
      "source": 0
    }
  ]
}

